<?xml version="1.0" encoding="iso-8859-1"?>
<!-- Generator: Adobe Illustrator 19.0.0, SVG Export Plug-In . SVG Version: 6.00 Build 0)  -->
<svg xmlns="http://www.w3.org/2000/svg" xmlns:xlink="http://www.w3.org/1999/xlink" version="1.1" id="Capa_1" x="0px" y="0px" viewBox="0 0 501 501" style="enable-background:new 0 0 501 501;" xml:space="preserve" width="512" height="512">
<g>
	<path style="fill:#FFB23C;" d="M495.5,256c0,98.748-58.422,183.849-142.586,222.63c-8.602,3.964-18.414-2.396-18.414-11.867v0   c0-31.349-25.413-56.763-56.763-56.763H69.416c-6.105,0-11.851-2.888-15.499-7.784C23.508,361.403,5.5,310.808,5.5,256   c0-135.173,109.469-244.779,244.591-245C385.137,10.78,495.5,120.954,495.5,256z"/>
	<path style="fill:#81B6E8;" d="M354.5,140v337.876C322.929,492.7,287.686,501,250.5,501c-80.147,0-151.301-38.488-196-97.986V140   c0-5.523,4.477-10,10-10h280C350.023,130,354.5,134.477,354.5,140z"/>
	<path style="fill:#5EA1DF;" d="M74.5,426.396c-7.135-7.368-13.828-15.166-20-23.382V140c0-5.523,4.477-10,10-10h20   c-5.523,0-10,4.477-10,10V426.396z"/>
	<path style="fill:#368ED7;" d="M314.5,265v10c0,2.761-2.239,5-5,5h-220c-2.761,0-5-2.239-5-5v-10c0-2.761,2.239-5,5-5h220   C312.261,260,314.5,262.239,314.5,265z M89.5,320h80c2.761,0,5-2.239,5-5v-10c0-2.761-2.239-5-5-5h-80c-2.761,0-5,2.239-5,5v10   C84.5,317.761,86.739,320,89.5,320z M89.5,240h110c2.761,0,5-2.239,5-5v-10c0-2.761-2.239-5-5-5h-110c-2.761,0-5,2.239-5,5v10   C84.5,237.761,86.739,240,89.5,240z M309.5,410h-220c-2.761,0-5,2.239-5,5v10c0,2.761,2.239,5,5,5h220c2.761,0,5-2.239,5-5v-10   C314.5,412.239,312.261,410,309.5,410z M89.5,390h110c2.761,0,5-2.239,5-5v-10c0-2.761-2.239-5-5-5h-110c-2.761,0-5,2.239-5,5v10   C84.5,387.761,86.739,390,89.5,390z M169.5,450h-68.623c9.559,7.383,19.678,14.073,30.284,20H169.5c2.761,0,5-2.239,5-5v-10   C174.5,452.239,172.261,450,169.5,450z"/>
	<path style="fill:#D8E7F2;" d="M434.5,375h-280c-5.523,0-10-4.477-10-10V10c0-5.523,4.477-10,10-10h280c5.523,0,10,4.477,10,10v355   C444.5,370.523,440.023,375,434.5,375z"/>
	<path style="fill:#EAFAFF;" d="M434.5,375h-260c-5.523,0-10-4.477-10-10V10c0-5.523,4.477-10,10-10h260c5.523,0,10,4.477,10,10v355   C444.5,370.523,440.023,375,434.5,375z"/>
	<path style="fill:#C9D8E4;" d="M184.5,235v-10c0-2.761,2.239-5,5-5h110c2.761,0,5,2.239,5,5v10c0,2.761-2.239,5-5,5h-110   C186.739,240,184.5,237.761,184.5,235z M269.5,300h-80c-2.761,0-5,2.239-5,5v10c0,2.761,2.239,5,5,5h80c2.761,0,5-2.239,5-5v-10   C274.5,302.239,272.261,300,269.5,300z M409.5,260h-220c-2.761,0-5,2.239-5,5v10c0,2.761,2.239,5,5,5h220c2.761,0,5-2.239,5-5v-10   C414.5,262.239,412.261,260,409.5,260z M419.5,20h-40c-2.761,0-5,2.239-5,5v10c0,2.761,2.239,5,5,5h40c2.761,0,5-2.239,5-5V25   C424.5,22.239,422.261,20,419.5,20z"/>
	<path style="fill:#D8E7F2;" d="M299.5,190h-110c-2.761,0-5-2.239-5-5V25c0-2.761,2.239-5,5-5h110c2.761,0,5,2.239,5,5v160   C304.5,187.761,302.261,190,299.5,190z"/>
	<path style="fill:#067FC8;" d="M235.75,110v50c0,2.761-2.239,5-5,5h-12.5c-2.761,0-5-2.239-5-5v-50c0-2.761,2.239-5,5-5h12.5   C233.511,105,235.75,107.239,235.75,110z M343.25,105h-12.5c-2.761,0-5,2.239-5,5v50c0,2.761,2.239,5,5,5h12.5c2.761,0,5-2.239,5-5   v-50C348.25,107.239,346.011,105,343.25,105z M380.75,127.5h-12.5c-2.761,0-5,2.239-5,5V160c0,2.761,2.239,5,5,5h12.5   c2.761,0,5-2.239,5-5v-27.5C385.75,129.739,383.511,127.5,380.75,127.5z M305.75,45h-12.5c-2.761,0-5,2.239-5,5v110   c0,2.761,2.239,5,5,5h12.5c2.761,0,5-2.239,5-5V50C310.75,47.239,308.511,45,305.75,45z M268.25,75h-12.5c-2.761,0-5,2.239-5,5v80   c0,2.761,2.239,5,5,5h12.5c2.761,0,5-2.239,5-5V80C273.25,77.239,271.011,75,268.25,75z"/>
	<path style="fill:#875146;" d="M386.951,405.527l-19.902-11.794c-1.572-0.931-3.526-0.931-5.098,0l-19.902,11.794   c-3.333,1.975-7.549-0.427-7.549-4.301V335c0-2.761,2.239-5,5-5h50c2.761,0,5,2.239,5,5v66.225   C394.5,405.099,390.284,407.502,386.951,405.527z"/>
	<path style="fill:#FF6A31;" d="M364.5,230c-33.137,0-60,26.863-60,60s26.863,60,60,60s60-26.863,60-60S397.637,230,364.5,230z    M364.5,330c-22.091,0-40-17.909-40-40s17.909-40,40-40s40,17.909,40,40S386.591,330,364.5,330z M394.5,290   c0,16.568-13.431,30-30,30s-30-13.432-30-30s13.431-30,30-30S394.5,273.432,394.5,290z"/>
	<path style="fill:#FF4927;" d="M389.5,344.541c-7.613,3.495-16.075,5.459-25,5.459c-33.137,0-60-26.863-60-60s26.863-60,60-60   c8.925,0,17.387,1.964,25,5.459c-7.673,3.523-14.471,8.612-19.99,14.865c-1.642-0.205-3.312-0.323-5.01-0.323   c-22.091,0-40,17.909-40,40s17.909,40,40,40c1.698,0,3.368-0.118,5.01-0.323C375.029,335.929,381.827,341.018,389.5,344.541z    M379.409,288.325c-0.732-6.756-6.094-12.267-12.828-13.183c-0.781-0.106-1.552-0.152-2.308-0.14   c-4.018,0.06-6.825-4.019-5.299-7.737c1.02-2.485,2.201-4.886,3.531-7.191C346.867,261.101,334.5,274.103,334.5,290   s12.367,28.899,28.005,29.927c-1.329-2.304-2.51-4.704-3.529-7.187c-1.546-3.768,1.354-7.766,5.426-7.74c0.033,0,0.065,0,0.098,0   C373.336,305,380.388,297.36,379.409,288.325z"/>
</g>















</svg>
